<svg width="600" height="340" viewBox="0 0 600 340" xmlns="http://www.w3.org/2000/svg">
  <defs>
    <linearGradient id="blogGrad1" x1="0%" y1="0%" x2="100%" y2="100%">
      <stop offset="0%" style="stop-color:#EEF2FF;stop-opacity:1" />
      <stop offset="100%" style="stop-color:#E0E7FF;stop-opacity:0.6" />
    </linearGradient>
  </defs>
  
  <rect width="600" height="340" fill="url(#blogGrad1)"/>
  
  <!-- Confused user icon -->
  <g transform="translate(300, 120)">
    <circle r="50" fill="white" filter="drop-shadow(0 8px 24px rgba(79,70,229,0.15))"/>
    <circle cx="0" cy="-10" r="20" fill="none" stroke="#4F46E5" stroke-width="3"/>
    <path d="M -15 20 Q 0 10 15 20" stroke="#4F46E5" stroke-width="3" fill="none" stroke-linecap="round"/>
    <circle cx="-8" cy="-15" r="3" fill="#4F46E5"/>
    <circle cx="8" cy="-15" r="3" fill="#4F46E5"/>
    
    <!-- Question marks -->
    <text x="-40" y="-30" font-family="Inter, sans-serif" font-size="24" font-weight="700" fill="#4F46E5" opacity="0.6">?</text>
    <text x="30" y="-40" font-family="Inter, sans-serif" font-size="20" font-weight="700" fill="#4F46E5" opacity="0.4">?</text>
    <text x="35" y="10" font-family="Inter, sans-serif" font-size="16" font-weight="700" fill="#4F46E5" opacity="0.5">?</text>
  </g>
  
  <!-- Broken website elements -->
  <g transform="translate(100, 240)" opacity="0.4">
    <rect width="80" height="60" rx="8" fill="white" filter="drop-shadow(0 4px 12px rgba(0,0,0,0.1))"/>
    <line x1="20" y1="20" x2="60" y2="40" stroke="#DC2626" stroke-width="3" stroke-linecap="round"/>
    <line x1="60" y1="20" x2="20" y2="40" stroke="#DC2626" stroke-width="3" stroke-linecap="round"/>
  </g>
  
  <g transform="translate(240, 250)" opacity="0.4">
    <rect width="60" height="50" rx="8" fill="white" filter="drop-shadow(0 4px 12px rgba(0,0,0,0.1))"/>
    <circle cx="30" cy="25" r="15" fill="none" stroke="#DC2626" stroke-width="3"/>
    <line x1="20" y1="25" x2="40" y2="25" stroke="#DC2626" stroke-width="3" stroke-linecap="round"/>
  </g>
  
  <g transform="translate(360, 245)" opacity="0.4">
    <rect width="70" height="55" rx="8" fill="white" filter="drop-shadow(0 4px 12px rgba(0,0,0,0.1))"/>
    <path d="M 20 30 L 35 20 L 50 30" stroke="#DC2626" stroke-width="3" fill="none" stroke-linecap="round"/>
    <line x1="35" y1="20" x2="35" y2="40" stroke="#DC2626" stroke-width="3" stroke-linecap="round"/>
  </g>
</svg>
