<svg width="600" height="340" viewBox="0 0 600 340" xmlns="http://www.w3.org/2000/svg">
  <defs>
    <linearGradient id="blogGrad3" x1="0%" y1="0%" x2="100%" y2="100%">
      <stop offset="0%" style="stop-color:#FEF3C7;stop-opacity:1" />
      <stop offset="100%" style="stop-color:#FDE68A;stop-opacity:0.6" />
    </linearGradient>
  </defs>
  
  <rect width="600" height="340" fill="url(#blogGrad3)"/>
  
  <!-- AI Chip/Brain -->
  <g transform="translate(300, 140)">
    <!-- Outer glow -->
    <circle r="80" fill="#FEF3C7" opacity="0.5"/>
    
    <!-- Chip body -->
    <rect x="-50" y="-50" width="100" height="100" rx="20" fill="white" filter="drop-shadow(0 10px 30px rgba(217,119,6,0.2))"/>
    
    <!-- Circuit patterns -->
    <line x1="-30" y1="-30" x2="-10" y2="-30" stroke="#D97706" stroke-width="3" stroke-linecap="round"/>
    <line x1="10" y1="-30" x2="30" y2="-30" stroke="#D97706" stroke-width="3" stroke-linecap="round"/>
    <line x1="-30" y1="0" x2="-10" y2="0" stroke="#D97706" stroke-width="3" stroke-linecap="round"/>
    <line x1="10" y1="0" x2="30" y2="0" stroke="#D97706" stroke-width="3" stroke-linecap="round"/>
    <line x1="-30" y1="30" x2="-10" y2="30" stroke="#D97706" stroke-width="3" stroke-linecap="round"/>
    <line x1="10" y1="30" x2="30" y2="30" stroke="#D97706" stroke-width="3" stroke-linecap="round"/>
    
    <line x1="-30" y1="-30" x2="-30" y2="-10" stroke="#D97706" stroke-width="3" stroke-linecap="round"/>
    <line x1="-30" y1="10" x2="-30" y2="30" stroke="#D97706" stroke-width="3" stroke-linecap="round"/>
    <line x1="30" y1="-30" x2="30" y2="-10" stroke="#D97706" stroke-width="3" stroke-linecap="round"/>
    <line x1="30" y1="10" x2="30" y2="30" stroke="#D97706" stroke-width="3" stroke-linecap="round"/>
    
    <!-- Center AI symbol -->
    <circle r="20" fill="#FEF3C7"/>
    <path d="M -8 -8 Q 0 -12 8 -8 Q 12 0 8 8 Q 0 12 -8 8 Q -12 0 -8 -8" stroke="#D97706" stroke-width="3" fill="none" stroke-linecap="round"/>
    <circle r="5" fill="#D97706"/>
  </g>
  
  <!-- Sparkles -->
  <g transform="translate(180, 100)" opacity="0.6">
    <path d="M 0 -10 L 2 -2 L 10 0 L 2 2 L 0 10 L -2 2 L -10 0 L -2 -2 Z" fill="#D97706"/>
  </g>
  
  <g transform="translate(420, 180)" opacity="0.6">
    <path d="M 0 -8 L 1.5 -1.5 L 8 0 L 1.5 1.5 L 0 8 L -1.5 1.5 L -8 0 L -1.5 -1.5 Z" fill="#D97706"/>
  </g>
  
  <!-- Competitive advantage badge -->
  <g transform="translate(300, 280)">
    <rect width="200" height="50" rx="25" fill="white" filter="drop-shadow(0 6px 20px rgba(217,119,6,0.2))"/>
    <text x="100" y="32" font-family="Inter, sans-serif" font-size="18" font-weight="700" fill="#D97706" text-anchor="middle">Competitive Edge</text>
  </g>
</svg>
